<?xml version="1.0" standalone="no"?>
<!DOCTYPE svg PUBLIC "-//W3C//DTD SVG 20010904//EN"
 "http://www.w3.org/TR/2001/REC-SVG-20010904/DTD/svg10.dtd">
<svg version="1.0" xmlns="http://www.w3.org/2000/svg"
 width="168.000000pt" height="174.000000pt" viewBox="0 0 168.000000 174.000000"
 preserveAspectRatio="xMidYMid meet">
<metadata>
Created by potrace 1.16, written by Peter Selinger 2001-2019
</metadata>
<g transform="translate(0.000000,174.000000) scale(0.100000,-0.100000)"
fill="#000000" stroke="none">
<path d="M862 1200 l-117 -60 45 40 c53 46 46 52 -13 11 -45 -31 -91 -78 -149
-151 -33 -43 -35 -48 -28 -98 9 -73 33 -96 100 -94 58 1 160 44 167 71 2 9 24
29 48 44 92 59 174 162 175 219 0 20 -64 78 -86 78 -13 0 -77 -27 -142 -60z
m158 -39 c0 -4 -11 -24 -25 -44 -13 -20 -20 -39 -16 -41 9 -6 31 17 49 49 10
17 11 18 12 3 0 -26 -90 -110 -112 -105 -10 3 -16 2 -13 -3 3 -4 -2 -13 -10
-20 -8 -7 -15 -9 -15 -5 0 4 -22 -9 -49 -29 -76 -56 -156 -90 -180 -76 -32 16
-35 52 -11 108 20 47 28 54 103 93 115 60 267 100 267 70z"/>
<path d="M422 324 c-60 -34 -117 -97 -106 -116 4 -5 13 0 21 11 20 29 35 26
21 -4 -10 -22 -8 -29 16 -54 65 -68 126 -62 208 20 53 53 59 77 29 123 -43 65
-99 71 -189 20z m171 -12 c27 -24 21 -64 -18 -109 -58 -68 -130 -85 -184 -43
-23 17 -24 20 -11 51 8 18 33 52 56 76 39 39 46 43 91 41 26 -1 56 -8 66 -16z"/>
<path d="M0 22 l0 -22 840 0 c462 0 840 3 840 8 0 4 -370 6 -822 4 -755 -2
-823 -1 -840 14 -17 16 -18 16 -18 -4z"/>
</g>
</svg>
